<?xml version="1.0" encoding="utf-8"?>
<!-- Generator: Adobe Illustrator 27.0.0, SVG Export Plug-In . SVG Version: 6.00 Build 0)  -->
<svg version="1.1" id="Layer_1" xmlns="http://www.w3.org/2000/svg" xmlns:xlink="http://www.w3.org/1999/xlink" x="0px" y="0px"
	 viewBox="0 0 841.89 595.28" style="enable-background:new 0 0 841.89 595.28;" xml:space="preserve">
<style type="text/css">
	.st0{fill:#354D22;}
	.st1{fill:#FFFFFF;}
</style>
<g>
	<circle class="st0" cx="366.32" cy="256.63" r="139.79"/>
	<g>
		<path class="st1" d="M305.97,208.18c-2.47,0-4.26,0.69-5.35,2.06c-1.1,1.37-1.65,3.25-1.65,5.63c0,1.16,0.14,2.2,0.41,3.15
			c0.27,0.94,0.68,1.75,1.22,2.43c0.54,0.68,1.22,1.21,2.04,1.58s1.77,0.56,2.86,0.56c0.59,0,1.09-0.01,1.51-0.03
			c0.42-0.02,0.79-0.07,1.1-0.14v-8.19h5.3v11.66c-0.64,0.25-1.66,0.52-3.06,0.8c-1.41,0.28-3.14,0.42-5.2,0.42
			c-1.77,0-3.37-0.27-4.81-0.82c-1.44-0.54-2.67-1.34-3.69-2.38c-1.02-1.04-1.81-2.32-2.36-3.84c-0.56-1.52-0.83-3.25-0.83-5.2
			c0-1.97,0.31-3.72,0.92-5.24c0.61-1.52,1.45-2.8,2.52-3.86c1.07-1.05,2.32-1.85,3.76-2.4c1.44-0.54,2.98-0.82,4.61-0.82
			c1.11,0,2.11,0.07,3.01,0.22s1.67,0.32,2.31,0.51c0.65,0.19,1.18,0.39,1.6,0.6c0.42,0.2,0.72,0.36,0.9,0.48l-1.53,4.25
			c-0.73-0.38-1.56-0.72-2.5-1C308.11,208.32,307.08,208.18,305.97,208.18z"/>
		<path class="st1" d="M318.35,227.66V204.1h15.91v4.45h-10.61v4.62h9.42v4.35h-9.42v5.68h11.39v4.45H318.35z"/>
		<path class="st1" d="M356.43,204.1v4.52h-7.11v19.04h-5.3v-19.04h-7.11v-4.52H356.43z"/>
		<path class="st1" d="M390.43,215.86c0,2.02-0.3,3.79-0.9,5.32c-0.6,1.53-1.42,2.81-2.46,3.84c-1.04,1.03-2.28,1.81-3.72,2.33
			c-1.44,0.52-2.99,0.78-4.64,0.78c-1.61,0-3.13-0.26-4.56-0.78c-1.43-0.52-2.67-1.3-3.74-2.33s-1.9-2.31-2.52-3.84
			c-0.61-1.53-0.92-3.3-0.92-5.32c0-2.02,0.32-3.79,0.95-5.32c0.63-1.53,1.49-2.82,2.57-3.86c1.08-1.04,2.32-1.82,3.74-2.35
			c1.42-0.52,2.91-0.78,4.47-0.78c1.61,0,3.13,0.26,4.56,0.78c1.43,0.52,2.67,1.3,3.74,2.35c1.06,1.04,1.9,2.33,2.52,3.86
			C390.12,212.07,390.43,213.84,390.43,215.86z M372.44,215.86c0,1.16,0.14,2.2,0.43,3.13c0.28,0.93,0.69,1.73,1.22,2.4
			c0.53,0.67,1.18,1.18,1.95,1.55c0.77,0.36,1.65,0.54,2.65,0.54c0.97,0,1.85-0.18,2.63-0.54c0.78-0.36,1.44-0.88,1.97-1.55
			c0.53-0.67,0.94-1.47,1.22-2.4c0.28-0.93,0.42-1.97,0.42-3.13c0-1.16-0.14-2.2-0.42-3.15c-0.28-0.94-0.69-1.75-1.22-2.41
			c-0.53-0.67-1.19-1.18-1.97-1.55c-0.78-0.36-1.66-0.54-2.63-0.54c-1,0-1.88,0.19-2.65,0.56s-1.42,0.9-1.95,1.56
			c-0.53,0.67-0.94,1.47-1.22,2.41C372.58,213.69,372.44,214.73,372.44,215.86z"/>
		<path class="st1" d="M404.06,228.13c-1.65,0-3.08-0.23-4.28-0.7c-1.2-0.46-2.19-1.11-2.98-1.94c-0.78-0.83-1.36-1.81-1.73-2.96
			c-0.37-1.14-0.56-2.41-0.56-3.79V204.1h5.3v14.21c0,0.95,0.11,1.76,0.32,2.43c0.22,0.67,0.51,1.21,0.88,1.63
			c0.37,0.42,0.83,0.72,1.36,0.9c0.53,0.18,1.12,0.27,1.75,0.27c1.29,0,2.34-0.4,3.15-1.19c0.8-0.79,1.21-2.14,1.21-4.05V204.1h5.3
			v14.65c0,1.38-0.19,2.65-0.58,3.81c-0.39,1.16-0.97,2.15-1.77,2.98c-0.79,0.83-1.8,1.47-3.03,1.92
			C407.19,227.91,405.74,228.13,404.06,228.13z"/>
		<path class="st1" d="M425.78,203.82c3.54,0,6.24,0.63,8.13,1.89c1.88,1.26,2.82,3.21,2.82,5.86c0,1.65-0.38,3-1.14,4.03
			c-0.76,1.03-1.85,1.84-3.28,2.43c0.48,0.59,0.97,1.26,1.5,2.02c0.52,0.76,1.04,1.55,1.55,2.38c0.51,0.83,1,1.69,1.48,2.58
			c0.48,0.9,0.92,1.77,1.33,2.63h-5.93c-0.43-0.77-0.87-1.55-1.31-2.35c-0.44-0.79-0.9-1.56-1.37-2.31
			c-0.47-0.75-0.93-1.46-1.38-2.12c-0.46-0.67-0.91-1.27-1.37-1.82h-2.62v8.6h-5.31v-23.22c1.16-0.23,2.35-0.38,3.59-0.48
			C423.7,203.87,424.81,203.82,425.78,203.82z M426.09,208.35c-0.39,0-0.73,0.01-1.04,0.03c-0.31,0.02-0.59,0.05-0.87,0.07v6.39h1.5
			c2,0,3.42-0.25,4.28-0.75s1.29-1.35,1.29-2.55c0-1.16-0.44-1.98-1.31-2.46C429.08,208.59,427.79,208.35,426.09,208.35z"/>
		<path class="st1" d="M271.83,268.46c-1.52-2.7-3.16-5.36-4.93-7.99c-1.77-2.63-3.65-5.11-5.64-7.45v15.44h-5.24V244.9h4.32
			c0.75,0.75,1.58,1.67,2.48,2.75c0.91,1.09,1.83,2.25,2.77,3.48c0.94,1.24,1.88,2.52,2.81,3.84c0.93,1.33,1.8,2.6,2.62,3.83V244.9
			h5.27v23.56H271.83z"/>
		<path class="st1" d="M281.73,268.46V244.9h15.91v4.45h-10.61v4.62h9.42v4.35h-9.42V264h11.39v4.45H281.73z"/>
		<path class="st1" d="M318.17,247.41c0.27,0.93,0.57,1.98,0.9,3.15c0.33,1.17,0.68,2.37,1.05,3.62c0.37,1.25,0.75,2.49,1.14,3.74
			c0.38,1.25,0.76,2.4,1.12,3.47c0.3-1.16,0.6-2.41,0.91-3.77c0.31-1.36,0.6-2.77,0.87-4.22c0.27-1.45,0.54-2.9,0.8-4.33
			c0.26-1.44,0.51-2.83,0.73-4.17h5.51c-0.8,3.94-1.72,7.94-2.75,12c-1.04,4.06-2.16,7.91-3.37,11.56h-4.85
			c-0.79-2.18-1.56-4.46-2.31-6.85c-0.75-2.39-1.48-4.79-2.21-7.19c-0.73,2.4-1.45,4.8-2.18,7.19c-0.73,2.39-1.49,4.68-2.28,6.85
			h-4.85c-1.21-3.65-2.33-7.5-3.36-11.56c-1.04-4.06-1.95-8.06-2.75-12h5.75c0.23,1.34,0.48,2.73,0.75,4.17
			c0.27,1.44,0.56,2.88,0.85,4.33c0.3,1.45,0.6,2.86,0.91,4.22c0.31,1.36,0.62,2.62,0.94,3.77c0.41-1.11,0.81-2.29,1.19-3.54
			c0.39-1.25,0.76-2.49,1.12-3.74c0.36-1.25,0.7-2.45,1-3.6c0.31-1.16,0.58-2.19,0.83-3.09H318.17z"/>
		<path class="st1" d="M340.99,264.41c0.75,0,1.37-0.06,1.85-0.19c0.49-0.12,0.88-0.29,1.17-0.51c0.29-0.21,0.5-0.47,0.61-0.76
			c0.11-0.29,0.17-0.62,0.17-0.99c0-0.77-0.36-1.41-1.09-1.92c-0.73-0.51-1.97-1.06-3.74-1.65c-0.77-0.27-1.54-0.58-2.31-0.94
			c-0.77-0.35-1.46-0.79-2.07-1.33c-0.61-0.53-1.11-1.18-1.5-1.94c-0.39-0.76-0.58-1.68-0.58-2.77c0-1.09,0.2-2.07,0.61-2.94
			c0.41-0.87,0.99-1.61,1.73-2.23c0.75-0.61,1.65-1.08,2.72-1.41s2.27-0.49,3.6-0.49c1.59,0,2.96,0.17,4.11,0.51
			c1.16,0.34,2.11,0.71,2.86,1.12l-1.53,4.18c-0.66-0.34-1.39-0.64-2.19-0.9c-0.8-0.26-1.77-0.39-2.91-0.39
			c-1.27,0-2.18,0.18-2.74,0.53c-0.56,0.35-0.83,0.89-0.83,1.62c0,0.43,0.1,0.79,0.31,1.09c0.2,0.29,0.49,0.56,0.87,0.8
			c0.37,0.24,0.8,0.45,1.29,0.65c0.49,0.19,1.03,0.39,1.62,0.6c1.22,0.45,2.29,0.9,3.2,1.34c0.91,0.44,1.66,0.96,2.26,1.55
			c0.6,0.59,1.05,1.28,1.34,2.07c0.29,0.79,0.44,1.76,0.44,2.89c0,2.2-0.77,3.9-2.31,5.12c-1.54,1.21-3.87,1.82-6.97,1.82
			c-1.04,0-1.98-0.06-2.82-0.19c-0.84-0.12-1.58-0.28-2.23-0.46s-1.2-0.37-1.67-0.58c-0.46-0.2-0.86-0.4-1.17-0.58l1.5-4.22
			c0.7,0.39,1.57,0.73,2.6,1.04C338.23,264.26,339.49,264.41,340.99,264.41z"/>
		<path class="st1" d="M370.09,263.9v4.56h-15.74V244.9h5.3v19.01H370.09z"/>
		<path class="st1" d="M373.49,268.46V244.9h15.91v4.45H378.8v4.62h9.42v4.35h-9.42V264h11.39v4.45H373.49z"/>
		<path class="st1" d="M411.57,244.9v4.52h-7.11v19.04h-5.3v-19.04h-7.11v-4.52H411.57z"/>
		<path class="st1" d="M433.33,244.9v4.52h-7.11v19.04h-5.3v-19.04h-7.11v-4.52H433.33z"/>
		<path class="st1" d="M436.73,268.46V244.9h15.91v4.45h-10.61v4.62h9.42v4.35h-9.42V264h11.39v4.45H436.73z"/>
		<path class="st1" d="M464.24,244.62c3.54,0,6.24,0.63,8.13,1.89c1.88,1.26,2.82,3.21,2.82,5.86c0,1.65-0.38,3-1.14,4.03
			c-0.76,1.03-1.85,1.84-3.28,2.43c0.48,0.59,0.97,1.26,1.5,2.02c0.52,0.76,1.04,1.55,1.55,2.38c0.51,0.83,1,1.69,1.48,2.58
			c0.48,0.9,0.92,1.77,1.33,2.63h-5.93c-0.43-0.77-0.87-1.55-1.31-2.35c-0.44-0.79-0.9-1.56-1.37-2.31
			c-0.47-0.75-0.93-1.46-1.38-2.12c-0.46-0.67-0.91-1.27-1.37-1.82h-2.62v8.6h-5.3v-23.22c1.16-0.23,2.35-0.38,3.59-0.48
			C462.16,244.67,463.26,244.62,464.24,244.62z M464.54,249.15c-0.39,0-0.73,0.01-1.04,0.03c-0.31,0.02-0.59,0.05-0.87,0.07v6.39
			h1.5c2,0,3.42-0.25,4.28-0.75s1.29-1.35,1.29-2.55c0-1.16-0.44-1.98-1.31-2.46C467.53,249.39,466.24,249.15,464.54,249.15z"/>
		<path class="st1" d="M332.95,285.7h5.3v23.56h-5.3v-10h-8.91v10h-5.3V285.7h5.3v9.01h8.91V285.7z"/>
		<path class="st1" d="M343.69,309.26V285.7h15.91v4.45H349v4.62h9.42v4.35H349v5.68h11.39v4.45H343.69z"/>
		<path class="st1" d="M371.2,285.42c3.54,0,6.24,0.63,8.13,1.89c1.88,1.26,2.82,3.21,2.82,5.86c0,1.65-0.38,3-1.14,4.03
			c-0.76,1.03-1.85,1.84-3.28,2.43c0.48,0.59,0.97,1.26,1.5,2.02c0.52,0.76,1.04,1.55,1.55,2.38c0.51,0.83,1,1.69,1.48,2.58
			s0.92,1.77,1.33,2.63h-5.93c-0.43-0.77-0.87-1.55-1.31-2.35c-0.44-0.79-0.9-1.56-1.36-2.31c-0.47-0.75-0.93-1.46-1.38-2.12
			c-0.46-0.67-0.91-1.27-1.37-1.82h-2.62v8.6h-5.3v-23.22c1.16-0.23,2.35-0.38,3.59-0.48C369.12,285.47,370.22,285.42,371.2,285.42z
			 M371.5,289.95c-0.39,0-0.73,0.01-1.04,0.03c-0.31,0.02-0.6,0.05-0.87,0.07v6.39h1.5c1.99,0,3.42-0.25,4.28-0.75
			c0.86-0.5,1.29-1.35,1.29-2.55c0-1.16-0.44-1.98-1.31-2.46C374.49,290.19,373.2,289.95,371.5,289.95z"/>
		<path class="st1" d="M386.97,309.26V285.7h15.91v4.45h-10.61v4.62h9.42v4.35h-9.42v5.68h11.39v4.45H386.97z"/>
		<path class="st1" d="M412.88,306.57c0,1-0.32,1.77-0.97,2.31c-0.65,0.54-1.38,0.82-2.19,0.82c-0.82,0-1.55-0.27-2.19-0.82
			c-0.65-0.54-0.97-1.31-0.97-2.31c0-1,0.32-1.77,0.97-2.31c0.65-0.54,1.38-0.82,2.19-0.82c0.82,0,1.55,0.27,2.19,0.82
			C412.56,304.8,412.88,305.58,412.88,306.57z M412.44,291.78c0,1.84-0.07,3.55-0.2,5.13s-0.32,3.2-0.54,4.83h-3.88
			c-0.23-1.63-0.41-3.24-0.56-4.83c-0.15-1.59-0.22-3.3-0.22-5.13v-6.09h5.41V291.78z"/>
	</g>
</g>
</svg>
